<svg data-v-0dd9719b="" version="1.0" xmlns="http://www.w3.org/2000/svg" xmlns:xlink="http://www.w3.org/1999/xlink" width="100%" height="100%" viewBox="0 0 340.000000 250.000000" preserveAspectRatio="xMidYMid meet" color-interpolation-filters="sRGB" style="margin: auto;"> <rect data-v-0dd9719b="" x="0" y="0" width="100%" height="100%" fill="#fff" fill-opacity="1" class="background"></rect> <rect data-v-0dd9719b="" x="0" y="0" width="100%" height="100%" fill="url(#watermark)" fill-opacity="1" class="watermarklayer"></rect> <g data-v-0dd9719b="" fill="#333" class="icon-text-wrapper icon-svg-group iconsvg" transform="translate(48.16999816894531,95.10075950622559)"><g class="iconsvg-imagesvg" transform="translate(0,0)"><g><rect fill="#333" fill-opacity="0" stroke-width="2" x="0" y="0" width="60" height="59.798479125347576" class="image-rect"></rect> <svg x="0" y="0" width="60" height="59.798479125347576" filtersec="colorsb272685615" class="image-svg-svg primary" style="overflow: visible;"><svg xmlns="http://www.w3.org/2000/svg" viewBox="-0.0024471282958984375 -0.0027874410152435303 152.8577117919922 152.34397888183594"><path d="M41.48 21.45v95.37c9-.07 15.68-3.7 18.93-10.57 3-6.42 3.65-14 5.49-21.72h27.15c-1 13.38-.14 26.72-3.3 39-4.18 16.31-16.42 26.53-33.56 27.94-15.68 1.29-31.53.76-47.3.78-5.39 0-9-2.75-8.89-8.62.53-19.68-.47-39.59 2.23-59 3.51-25.26 17.46-45.5 39.25-63.18z" fill="#601986"></path><path d="M115.45 36.11c-15.24-.22-20.45 6.5-24.07 29.18H64.51c.11-16.65-3.33-33.35 7.45-48.05C79.37 7.14 89.14.77 101.75.28c13.81-.54 27.64-.12 41.46-.23 5.28 0 9.14 2.33 9.14 7.53 0 24.82 3 49.92-5.62 74.08-6.1 17-15.74 31.73-31.28 45.38z" fill="#00a0da"></path></svg></svg> <!----></g></g> <g transform="translate(67.00000381469727,20.88424015045166)"><g data-gra="path-name" fill-rule="" class="tp-name iconsvg-namesvg"><g transform="scale(1)"><g><path d="M12.25-17.52L12.25-11.39 6.69-11.39 6.69-17.52 1.67-17.52 1.67 0 6.69 0 6.69-7.2 12.25-7.2 12.25 0 17.27 0 17.27-17.52ZM30.53-9.42L36.33-17.52 30.55-17.52 26.31-11.21 25.63-11.21 25.63-17.52 20.6-17.52 20.6 0 25.63 0 25.63-7.27 26.31-7.27 30.6 0 36.59 0ZM44.11 0L58.73 0 58.73-4.32 50.4-4.32 50.4-4.47 57.97-13.36 57.97-17.52 44.56-17.52 44.56-13.21 51.63-13.21 51.63-13.05 44.11-4.27ZM69.18 0.25C74.11 0.25 77.09-1.46 77.09-5.93L77.09-17.52 72.09-17.52 72.09-6.29C72.09-5.35 71.68-4.04 69.18-4.04 66.76-4.04 66.33-5.15 66.33-6.29L66.33-17.52 61.3-17.52 61.3-5.93C61.3-1.01 64.26 0.25 69.18 0.25ZM92.89 0L98.24 0 91.86-17.52 85.06-17.52 78.63 0 83.88 0 85.11-3.69 91.68-3.69ZM86.45-7.73L88.27-13.21 88.57-13.21 90.37-7.73ZM99.78 0L104.73 0 104.73-11.72 104.88-11.72 109.05 0 116.04 0 116.04-17.52 111.15-17.52 111.15-6.54 110.99-6.54 107.36-17.52 99.78-17.52ZM127.86 0.25C130.01 0.25 132.51-0.15 133.84-0.56L133.84-10.68 126.65-10.68 126.65-6.49 129.22-6.49 129.22-3.94C128.85-3.91 128.8-3.91 128.11-3.91 124.98-3.91 124.48-5.1 124.48-8.76 124.48-12.27 125.41-13.53 128.34-13.53 129.68-13.53 131.29-13.31 132.71-12.83L132.71-17.19C131.67-17.52 129.6-17.78 127.91-17.78 122.38-17.78 118.92-15.53 118.92-8.76 118.92-1.41 122.23 0.25 127.86 0.25ZM137.03 0L142.05 0 142.05-4.77 143.84-4.77C149.1-4.77 151.09-6.36 151.09-11.29 151.09-15.81 149.37-17.52 143.84-17.52L137.03-17.52ZM142.05-8.76L142.05-13.66 143.11-13.66C145.16-13.66 145.96-13.1 145.96-11.16 145.96-9.32 145.21-8.76 143.11-8.76ZM153.72 0L158.74 0 158.74-17.52 153.72-17.52ZM162.07 0L167.02 0 167.02-11.72 167.17-11.72 171.34 0 178.33 0 178.33-17.52 173.44-17.52 173.44-6.54 173.28-6.54 169.65-17.52 162.07-17.52Z" transform="translate(-1.6700000762939453, 17.780000686645508)"></path></g> <!----> <!----> <!----> <!----> <!----> <!----> <!----></g></g> <!----></g></g><defs v-gra="od"></defs></svg>